<svg xmlns="http://www.w3.org/2000/svg" version="1.1" xmlns:xlink="http://www.w3.org/1999/xlink" xmlns:svgjs="http://svgjs.dev/svgjs" width="2000" height="277" viewBox="0 0 2000 277"><g transform="matrix(1,0,0,1,-1.2121212121212466,1.1898647064526529)"><svg viewBox="0 0 396 55" data-background-color="#111111" preserveAspectRatio="xMidYMid meet" height="277" width="2000" xmlns="http://www.w3.org/2000/svg" xmlns:xlink="http://www.w3.org/1999/xlink"><g id="tight-bounds" transform="matrix(1,0,0,1,0.2400000000000091,-0.23625472510792633)"><svg viewBox="0 0 395.52 55.47250945021585" height="55.47250945021585" width="395.52"><g><svg viewBox="0 0 473.22905727916765 66.37136769830948" height="55.47250945021585" width="395.52"><g transform="matrix(1,0,0,1,77.70905727916774,9.17288801040312)"><svg viewBox="0 0 395.5199999999999 48.02559167750324" height="48.02559167750324" width="395.5199999999999"><g id="textblocktransform"><svg viewBox="0 0 395.5199999999999 48.02559167750324" height="48.02559167750324" width="395.5199999999999" id="textblock"><g><svg viewBox="0 0 395.5199999999999 48.02559167750324" height="48.02559167750324" width="395.5199999999999"><g transform="matrix(1,0,0,1,0,0)"><svg width="395.5199999999999" viewBox="3.91 -35.86 300.35999999999996 36.47" height="48.02559167750324" data-palette-color="#ffffff"><path d="M11.79-31.1L11.79-1.29Q11.79-0.56 11.49-0.28 11.18 0 10.45 0L10.45 0 5.25 0Q4.52 0 4.21-0.28 3.91-0.56 3.91-1.29L3.91-1.29 3.91-31.1Q3.91-31.81 4.15-32.18L4.15-32.18Q5.25-33.79 7.23-35.57L7.23-35.57Q7.59-35.86 7.86-35.86L7.86-35.86Q8.15-35.86 8.47-35.57L8.47-35.57Q9.55-34.64 10.28-33.8 11.01-32.96 11.55-32.18L11.55-32.18Q11.79-31.79 11.79-31.1L11.79-31.1ZM43.16-15.55L43.16-15.55 43.16-1.29Q43.16-0.56 42.86-0.28 42.55 0 41.82 0L41.82 0 36.79 0Q36.06 0 35.75-0.28 35.45-0.56 35.45-1.29L35.45-1.29 35.45-14.28Q35.45-16.94 34.32-18.16 33.2-19.38 31.27-19.38L31.27-19.38Q29.34-19.38 28.31-18.55 27.27-17.72 26.71-16.46L26.71-16.46 26.71-1.29Q26.71-0.56 26.4-0.28 26.1 0 25.36 0L25.36 0 20.33 0Q19.6 0 19.3-0.28 18.99-0.56 18.99-1.29L18.99-1.29 18.99-21.75Q18.99-22.34 19.24-22.66L19.24-22.66Q19.75-23.34 20.47-24.05 21.19-24.76 22.24-25.56L22.24-25.56Q22.56-25.81 22.85-25.81L22.85-25.81Q23.12-25.81 23.46-25.56L23.46-25.56Q24.48-24.76 25.22-24.02 25.95-23.29 26.51-22.51L26.51-22.51 26.63-22.51Q27.05-23.05 27.88-23.77 28.71-24.49 30.21-25.05 31.71-25.61 34.06-25.61L34.06-25.61Q36.35-25.61 38.43-24.68 40.5-23.75 41.83-21.56 43.16-19.36 43.16-15.55ZM56.71 0.61L56.71 0.61Q54.1 0.61 52.38 0.17 50.65-0.27 49.62-0.89 48.58-1.51 47.99-2.03L47.99-2.03Q47.55-2.44 47.9-2.95L47.9-2.95 50.39-6.64Q50.92-7.42 51.61-6.74L51.61-6.74Q52.31-6.05 53.52-5.41 54.73-4.76 56.54-4.76L56.54-4.76Q58.15-4.76 59.19-5.31 60.22-5.86 60.22-6.91L60.22-6.91Q60.22-7.64 59.76-8.11 59.3-8.57 58.12-9.06 56.95-9.55 54.85-10.3L54.85-10.3Q51.75-11.43 50.17-13.01 48.58-14.6 48.58-17.65L48.58-17.65Q48.58-20.46 50.13-22.22 51.68-23.97 54.11-24.79 56.54-25.61 59.17-25.61L59.17-25.61Q62.52-25.61 63.87-24.99 65.23-24.37 65.62-24.02L65.62-24.02Q65.99-23.71 66.13-23.29L66.13-23.29Q66.45-22.34 66.62-20.78L66.62-20.78Q66.72-19.87 66.16-19.58L66.16-19.58Q65.86-19.41 65.23-19.21 64.59-19.02 63.96-18.87 63.33-18.73 63.01-18.73L63.01-18.73Q62.91-18.73 62.8-18.79 62.69-18.85 62.42-19.09L62.42-19.09Q62.1-19.41 61.34-19.82 60.57-20.24 59.22-20.24L59.22-20.24Q57.91-20.24 57.01-19.81 56.12-19.38 56.12-18.31L56.12-18.31Q56.12-17.14 57.26-16.55 58.39-15.97 61.01-15.04L61.01-15.04Q63.06-14.33 64.58-13.49 66.11-12.65 66.94-11.29 67.77-9.94 67.77-7.64L67.77-7.64Q67.77-4.66 66.14-2.84 64.52-1.03 61.99-0.21 59.47 0.61 56.71 0.61ZM82.41 0.61L82.41 0.61Q74.26 0.61 74.26-7.86L74.26-7.86 74.26-19.31 71.5-19.31Q70.77-19.31 70.49-19.62 70.21-19.92 70.21-20.65L70.21-20.65 70.21-23.66Q70.21-24.39 70.49-24.69 70.77-25 71.5-25L71.5-25 74.26-25 74.26-28.93Q74.26-29.52 74.5-29.83L74.5-29.83Q75.53-31.18 77.51-32.74L77.51-32.74Q77.85-32.98 78.12-32.98L78.12-32.98Q78.41-32.98 78.7-32.74L78.7-32.74Q79.75-31.93 80.47-31.23 81.19-30.52 81.71-29.83L81.71-29.83Q81.95-29.52 81.95-28.93L81.95-28.93 81.95-25 86.27-25Q87-25 87.28-24.69 87.57-24.39 87.57-23.66L87.57-23.66 87.57-20.65Q87.57-19.92 87.28-19.62 87-19.31 86.27-19.31L86.27-19.31 81.95-19.31 81.95-9.2Q81.95-5.3 84.78-5.3L84.78-5.3Q85.22-5.3 85.59-5.38 85.95-5.47 86.22-5.57L86.22-5.57Q86.74-5.76 86.94-5.71 87.15-5.66 87.32-5.18L87.32-5.18 88.74-1.39Q88.96-0.78 88.44-0.51L88.44-0.51Q88.08-0.34 86.67 0.13 85.27 0.61 82.41 0.61ZM99.28 0.61L99.28 0.61Q95.69 0.61 93.58-1.4 91.47-3.42 91.47-6.96L91.47-6.96Q91.47-8.79 92.14-10.36 92.81-11.94 94.48-13.15 96.16-14.36 99.17-15.09 102.19-15.82 106.87-15.94L106.87-15.94Q106.87-18.16 105.76-19.14 104.65-20.12 102.43-20.12L102.43-20.12Q100.43-20.12 99.16-19.43 97.89-18.75 97.57-18.51L97.57-18.51Q97.23-18.21 96.74-18.29L96.74-18.29Q96.08-18.38 95.34-18.63 94.59-18.87 93.74-19.19L93.74-19.19Q93.62-19.24 93.47-19.35 93.32-19.46 93.3-19.68L93.3-19.68Q93.3-19.8 93.32-19.98 93.35-20.17 93.45-20.65L93.45-20.65Q93.54-21.14 93.74-21.86 93.94-22.58 94.11-22.97L94.11-22.97Q94.33-23.39 94.84-23.75L94.84-23.75Q95.25-24.1 97.35-24.85 99.45-25.61 103.43-25.61L103.43-25.61Q114.39-25.61 114.39-14.94L114.39-14.94 114.39-1.12Q114.39-0.66 114.14-0.33 113.88 0 113.27 0L113.27 0 109.61 0Q109.22 0 108.91-0.11 108.61-0.22 108.34-0.54L108.34-0.54 106.83-2.49 106.66-2.49Q105.53-0.85 103.64-0.12 101.75 0.61 99.28 0.61ZM101.97-5.05L101.97-5.05Q104.21-5.05 105.36-6.2 106.51-7.35 106.83-8.57L106.83-8.57 106.83-11.28Q103.43-11.28 101.74-10.75 100.04-10.23 99.48-9.39 98.92-8.54 98.92-7.57L98.92-7.57Q98.92-6.15 99.79-5.6 100.67-5.05 101.97-5.05ZM129.48-25.93L129.48-1.29Q129.48-0.56 129.17-0.28 128.87 0 128.14 0L128.14 0 122.94 0Q122.2 0 121.9-0.28 121.59-0.56 121.59-1.29L121.59-1.29 121.59-28.47Q121.59-30.91 122.05-32.34 122.5-33.76 123.8-34.39 125.11-35.01 127.62-35.01L127.62-35.01 134.09-35.01Q146.84-35.01 146.84-25.22L146.84-25.22Q146.84-22.24 145.84-20.34 144.84-18.43 143.35-17.37 141.86-16.31 140.42-15.77L140.42-15.77 140.42-15.65Q142.05-14.58 143.53-12.83 145.01-11.08 146.2-9.05 147.4-7.01 148.23-5.02 149.06-3.03 149.38-1.46L149.38-1.46Q149.52-0.73 149.39-0.37 149.26 0 148.55 0L148.55 0 142.91 0Q142.27 0 141.8-0.27 141.32-0.54 140.93-1.51L140.93-1.51Q139.07-6.18 136.66-9.12 134.24-12.06 131.99-13.84L131.99-13.84Q130.55-14.99 130.55-15.48L130.55-15.48Q130.55-15.87 131.02-16.55L131.02-16.55Q131.31-16.97 131.87-17.55 132.43-18.14 132.85-18.43L132.85-18.43Q133.26-18.73 133.52-18.8 133.78-18.87 134.31-18.87L134.31-18.87Q136.12-18.87 137.33-20.12 138.54-21.36 138.54-24.05L138.54-24.05Q138.54-26.59 137.26-27.77 135.97-28.96 133.73-28.96L133.73-28.96 132.26-28.96Q130.65-28.96 130.07-28.27 129.48-27.59 129.48-25.93L129.48-25.93ZM165.85 0.61L165.85 0.61Q161.73 0.61 158.68-0.72 155.62-2.05 153.94-4.86 152.26-7.67 152.26-12.11L152.26-12.11Q152.26-18.77 155.67-22.19 159.09-25.61 164.76-25.61L164.76-25.61Q168.44-25.61 170.99-24.29 173.54-22.97 174.88-20.65 176.21-18.33 176.21-15.36L176.21-15.36Q176.21-12.45 174.72-11.3 173.23-10.16 170.37-10.16L170.37-10.16 159.9-10.16Q160.09-7.64 161.74-6.32 163.39-5 166.22-5L166.22-5Q168.47-5 169.82-5.68 171.18-6.35 171.71-6.74L171.71-6.74Q172.18-7.08 172.76-7.06L172.76-7.06Q173.23-7.06 174.09-6.87 174.96-6.69 175.82-6.2L175.82-6.2Q176.43-5.88 176.43-5.32L176.43-5.32Q176.43-5 176.3-4.42L176.3-4.42Q176.23-4.08 176.06-3.43 175.89-2.78 175.62-2.22L175.62-2.22Q175.47-1.95 175.16-1.71L175.16-1.71Q174.67-1.37 173.58-0.81 172.49-0.24 170.61 0.18 168.74 0.61 165.85 0.61ZM159.85-15.16L159.85-15.16 167.81-15.16Q169.05-15.16 169.05-16.31L169.05-16.31Q169.05-18.04 167.97-19.23 166.88-20.41 164.71-20.41L164.71-20.41Q162.34-20.41 161.23-18.9 160.12-17.38 159.85-15.16ZM188.53 0.61L188.53 0.61Q185.92 0.61 184.2 0.17 182.48-0.27 181.44-0.89 180.4-1.51 179.82-2.03L179.82-2.03Q179.38-2.44 179.72-2.95L179.72-2.95 182.21-6.64Q182.75-7.42 183.43-6.74L183.43-6.74Q184.14-6.05 185.35-5.41 186.55-4.76 188.36-4.76L188.36-4.76Q189.97-4.76 191.01-5.31 192.05-5.86 192.05-6.91L192.05-6.91Q192.05-7.64 191.58-8.11 191.12-8.57 189.95-9.06 188.78-9.55 186.68-10.3L186.68-10.3Q183.58-11.43 181.99-13.01 180.4-14.6 180.4-17.65L180.4-17.65Q180.4-20.46 181.95-22.22 183.5-23.97 185.93-24.79 188.36-25.61 191-25.61L191-25.61Q194.34-25.61 195.7-24.99 197.05-24.37 197.44-24.02L197.44-24.02Q197.81-23.71 197.96-23.29L197.96-23.29Q198.27-22.34 198.44-20.78L198.44-20.78Q198.54-19.87 197.98-19.58L197.98-19.58Q197.69-19.41 197.05-19.21 196.42-19.02 195.78-18.87 195.15-18.73 194.83-18.73L194.83-18.73Q194.73-18.73 194.62-18.79 194.51-18.85 194.25-19.09L194.25-19.09Q193.93-19.41 193.16-19.82 192.39-20.24 191.05-20.24L191.05-20.24Q189.73-20.24 188.84-19.81 187.95-19.38 187.95-18.31L187.95-18.31Q187.95-17.14 189.08-16.55 190.22-15.97 192.83-15.04L192.83-15.04Q194.88-14.33 196.41-13.49 197.93-12.65 198.76-11.29 199.59-9.94 199.59-7.64L199.59-7.64Q199.59-4.66 197.97-2.84 196.34-1.03 193.82-0.21 191.29 0.61 188.53 0.61ZM213.07 0.61L213.07 0.61Q204.37 0.61 204.37-9.91L204.37-9.91 204.35-22.31Q204.35-22.9 204.59-23.22L204.59-23.22Q205.62-24.56 207.6-26.12L207.6-26.12Q207.94-26.37 208.21-26.37L208.21-26.37Q208.52-26.37 208.82-26.12L208.82-26.12Q209.87-25.32 210.59-24.61 211.31-23.9 211.82-23.22L211.82-23.22Q212.06-22.9 212.06-22.31L212.06-22.31 212.06-10.6Q212.06-5.3 216.26-5.3L216.26-5.3Q218.34-5.3 219.58-6.75 220.83-8.2 220.83-10.69L220.83-10.69 220.83-22.31Q220.83-22.9 221.07-23.22L221.07-23.22Q222.1-24.56 224.08-26.12L224.08-26.12Q224.42-26.37 224.69-26.37L224.69-26.37Q225-26.37 225.3-26.12L225.3-26.12Q226.35-25.32 227.07-24.61 227.79-23.9 228.3-23.22L228.3-23.22Q228.54-22.9 228.54-22.31L228.54-22.31 228.54-1.12Q228.54-0.66 228.23-0.33 227.91 0 227.42 0L227.42 0 223.76 0Q223.37 0 223.06-0.11 222.76-0.22 222.49-0.54L222.49-0.54 220.98-2.49 220.81-2.49Q220.41-1.93 219.6-1.2 218.78-0.46 217.23 0.07 215.68 0.61 213.07 0.61ZM257.5-22.44L257.5-22.44Q258.4-23.54 260.29-24.57 262.18-25.61 265.63-25.61L265.63-25.61Q270.51-25.61 272.68-23.1 274.86-20.58 274.86-15.55L274.86-15.55 274.86-1.29Q274.86-0.56 274.55-0.28 274.25 0 273.51 0L273.51 0 268.48 0Q267.75 0 267.45-0.28 267.14-0.56 267.14-1.29L267.14-1.29 267.14-14.28Q267.14-17.02 266.14-18.2 265.14-19.38 263.14-19.38L263.14-19.38Q261.35-19.38 260.32-18.59 259.28-17.8 258.84-16.46L258.84-16.46 258.84-1.29Q258.84-0.56 258.53-0.28 258.23 0 257.5 0L257.5 0 252.47 0Q251.74 0 251.43-0.28 251.12-0.56 251.12-1.29L251.12-1.29 251.12-14.28Q251.12-16.94 250.03-18.16 248.93-19.38 247.15-19.38L247.15-19.38Q245.46-19.38 244.44-18.55 243.41-17.72 242.85-16.46L242.85-16.46 242.85-1.29Q242.85-0.56 242.54-0.28 242.24 0 241.51 0L241.51 0 236.48 0Q235.74 0 235.44-0.28 235.13-0.56 235.13-1.29L235.13-1.29 235.13-21.75Q235.13-22.34 235.38-22.66L235.38-22.66Q235.89-23.34 236.61-24.05 237.33-24.76 238.38-25.56L238.38-25.56Q238.7-25.81 238.99-25.81L238.99-25.81Q239.26-25.81 239.6-25.56L239.6-25.56Q240.63-24.76 241.36-24.02 242.09-23.29 242.65-22.51L242.65-22.51 242.78-22.51Q243.61-23.56 245.36-24.58 247.12-25.61 250.39-25.61L250.39-25.61Q253.52-25.61 255.03-24.67 256.54-23.73 257.5-22.44ZM293.7 0.61L293.7 0.61Q289.57 0.61 286.52-0.72 283.47-2.05 281.79-4.86 280.1-7.67 280.1-12.11L280.1-12.11Q280.1-18.77 283.52-22.19 286.94-25.61 292.6-25.61L292.6-25.61Q296.29-25.61 298.84-24.29 301.39-22.97 302.72-20.65 304.05-18.33 304.05-15.36L304.05-15.36Q304.05-12.45 302.56-11.3 301.07-10.16 298.22-10.16L298.22-10.16 287.74-10.16Q287.94-7.64 289.59-6.32 291.23-5 294.07-5L294.07-5Q296.31-5 297.67-5.68 299.02-6.35 299.56-6.74L299.56-6.74Q300.02-7.08 300.61-7.06L300.61-7.06Q301.07-7.06 301.94-6.87 302.81-6.69 303.66-6.2L303.66-6.2Q304.27-5.88 304.27-5.32L304.27-5.32Q304.27-5 304.15-4.42L304.15-4.42Q304.08-4.08 303.91-3.43 303.73-2.78 303.47-2.22L303.47-2.22Q303.32-1.95 303-1.71L303-1.71Q302.51-1.37 301.43-0.81 300.34-0.24 298.46 0.18 296.58 0.61 293.7 0.61ZM287.69-15.16L287.69-15.16 295.65-15.16Q296.9-15.16 296.9-16.31L296.9-16.31Q296.9-18.04 295.81-19.23 294.73-20.41 292.55-20.41L292.55-20.41Q290.18-20.41 289.07-18.9 287.96-17.38 287.69-15.16Z" opacity="1" transform="matrix(1,0,0,1,0,0)" fill="#ffffff" class="wordmark-text-0" data-fill-palette-color="primary" id="text-0"></path></svg></g></svg></g></svg></g></svg></g><g><svg viewBox="0 0 66.37136769830948 66.37136769830948" height="66.37136769830948" width="66.37136769830948"><g data-palette-color="#021eed"><rect width="18.14150717087126" height="66.37136769830948" fill="#021eed" stroke="transparent" data-fill-palette-color="accent" x="0" fill-opacity="0.5"></rect><rect width="18.14150717087126" height="66.37136769830948" fill="#021eed" stroke="transparent" data-fill-palette-color="accent" x="22.12378923276983" fill-opacity="0.75"></rect><rect width="18.14150717087126" height="66.37136769830948" fill="#021eed" stroke="transparent" data-fill-palette-color="accent" x="44.24757846553966" fill-opacity="1"></rect></g></svg></g></svg></g><defs></defs></svg><rect width="395.52" height="55.47250945021585" fill="none" stroke="none" visibility="hidden"></rect></g></svg></g></svg>